<?xml version="1.0" encoding="utf-8"?>
<!-- Generator: Adobe Illustrator 26.1.0, SVG Export Plug-In . SVG Version: 6.00 Build 0)  -->
<svg version="1.1" id="Layer_1" xmlns="http://www.w3.org/2000/svg" xmlns:xlink="http://www.w3.org/1999/xlink" x="0px" y="0px"
	 viewBox="0 0 2634.9 656.7" style="enable-background:new 0 0 2634.9 656.7;" xml:space="preserve">
<style type="text/css">
	.st0{fill:#FFFFFF;}
</style>
<g>
	<g>
		<g>
			<path class="st0" d="M1075.6,167.4c1.9,0,2.9,1,2.9,2.9V480c0,1.9-1,2.9-2.9,2.9H1043c-1.9,0-2.9-1-2.9-2.9V246.2l-88.8,99.1
				c-1.5,1.5-2.9,1.5-4.2,0l-88.6-98.9V480c0,1.9-1,2.9-2.9,2.9H823c-1.9,0-2.9-1-2.9-2.9V170.2c0-1.9,1-2.9,2.9-2.9h12.8
				c2.2,0,4.1,0.9,5.7,2.6L949,290.2L1056.8,170c1.6-1.8,3.5-2.6,5.7-2.6H1075.6z"/>
			<path class="st0" d="M1434.3,167.4c1.9,0,2.9,1,2.9,2.9v199.4c0,30.8-10.9,57.3-32.6,79.3c-21.7,22-48,33.3-78.9,33.9
				c-31.6,0.6-58.7-10.6-81.3-33.7c-22.6-22.8-33.9-50.1-33.9-81.9v-197c0-1.9,1-2.9,2.9-2.9h34.4c1.9,0,2.9,1,2.9,2.9v197.4
				c0,20,6.8,37.3,20.3,52c13.8,14.7,30.5,22.4,50.2,23.1c20.7,0.7,38.6-6.1,53.5-20.5c15-14.5,22.5-32.1,22.5-52.7V170.2
				c0-1.9,1-2.9,2.9-2.9L1434.3,167.4L1434.3,167.4z"/>
			<path class="st0" d="M1665.4,300.9c2.8,1.2,4.9,2.1,6.4,2.9l6.6,2.9c5.1,2.5,9.8,4.8,14.1,7c11,5.9,20.3,12,28,18.5
				c20.4,17.3,30.6,38.4,30.6,63.2c0,27-9.2,48.3-27.5,63.9c-18.4,15.7-43.3,23.6-74.9,23.6c-23.2,0-45.1-5.1-65.6-15.4
				c-7.2-3.7-14-7.9-20.3-12.6c-2.4-1.8-4.6-3.5-6.8-5.3c-1.6-1.3-3.1-2.6-4.4-4c-1.5-1.3-1.5-2.7,0-4.2l25.1-23.6
				c1.3-1.2,2.6-1.2,4,0c1,0.9,2.1,1.8,3.3,2.9c1.5,1.2,3.1,2.3,4.8,3.5c4.4,3.1,9.2,5.9,14.3,8.4c14.2,6.8,29.4,10.1,45.6,10.1
				c41.6,0,62.3-15.8,62.3-47.4c0-12.2-5.3-22.8-15.9-31.9c-9-7.8-24.3-16.4-46-26l-0.7-0.2l-10.4-5.1l-5.5-2.4l-5.9-2.6
				c-4.7-2.2-9-4.3-12.8-6.4c-9.8-5.1-18.2-10.6-25.1-16.5c-18.4-15.7-27.5-34.9-27.5-57.5c0-24.5,8.3-43.8,24.9-57.9
				c16.6-14.2,39.2-21.4,67.9-21.4c20.7,0,40.2,4.6,58.6,13.7c6.5,3.2,12.6,7,18.3,11.2c2.1,1.5,4.1,3,6.2,4.6
				c1.5,1.3,2.8,2.6,4,3.7c1.6,1.3,1.6,2.7,0,4.2l-12.3,11.7l-12.6,11.9c-1.3,1.2-2.6,1.2-4,0.2c-0.9-0.9-1.8-1.8-2.9-2.6
				c-1.3-1-2.7-2.1-4.2-3.1c-4-2.6-8.1-4.9-12.3-6.8c-12.2-5.7-25.1-8.6-38.8-8.6c-35.1,0-52.7,13.1-52.7,39.2
				c0,10.3,4.5,19.2,13.4,26.9c7.5,6.5,20.8,13.8,39.9,22l0.7,0.4L1665.4,300.9z"/>
			<path class="st0" d="M1908.7,167.4c1.9,0,2.9,1,2.9,2.9V480c0,1.9-1,2.9-2.9,2.9h-34.6c-1.9,0-2.9-1-2.9-2.9V170.2
				c0-1.9,1-2.9,2.9-2.9L1908.7,167.4L1908.7,167.4z"/>
			<path class="st0" d="M2273.3,478c1,0.9,1.2,1.9,0.7,3.1c-0.4,1.2-1.3,1.8-2.6,1.8H2221c-0.9,0-1.5-0.3-2-0.9l-130-121.8V480
				c0,1.9-1,2.9-2.9,2.9h-34.6c-1.9,0-2.9-1-2.9-2.9V170c0-1.9,1-2.9,2.9-2.9h34.6c1.9,0,2.9,1,2.9,2.9v117.2l119.4-119
				c0.6-0.6,1.2-0.9,2-0.9h48.9c1.3,0,2.2,0.6,2.6,1.8c0.6,1.2,0.4,2.2-0.4,3.1L2109.2,324L2273.3,478z"/>
			<path class="st0" d="M2503.1,166.7c1.3,0,2.2,0.6,2.6,1.8l128.9,310.4c0.4,0.9,0.4,1.8-0.2,2.6c-0.6,0.9-1.4,1.3-2.4,1.3h-35.2
				c-1.3,0-2.2-0.6-2.6-1.8l-50.4-121.6h-111.7l-50.6,121.7c-0.4,1.2-1.3,1.8-2.6,1.8h-35.2c-1,0-1.8-0.4-2.4-1.3
				c-0.6-0.9-0.7-1.8-0.2-2.6L2470,168.6c0.6-1.2,1.5-1.8,2.6-1.8h30.5V166.7z M2527.6,321.1l-39.7-95.8l-39.9,95.8H2527.6z"/>
		</g>
		<path class="st0" d="M1908.7,67.7c1.9,0,2.9,0.1,2.9,0.4v39.6c0,0.2-1,0.4-2.9,0.4h-34.6c-1.9,0-2.9-0.1-2.9-0.4V68.1
			c0-0.2,1-0.4,2.9-0.4H1908.7z"/>
	</g>
	<g>
		<path class="st0" d="M340.6,0c1.3,0,1.9,2,1.9,6v644.7c0,4-0.6,6-1.9,6h-23.1c-1.3,0-1.9-2-1.9-6V6c0-4,0.6-6,1.9-6H340.6z"/>
		<path class="st0" d="M393.1,182.7c1.3,0,1.9,0.9,1.9,2.6v286c0,1.8-0.6,2.6-1.9,2.6H370c-1.3,0-1.9-0.9-1.9-2.6v-286
			c0-1.8,0.6-2.6,1.9-2.6L393.1,182.7L393.1,182.7z"/>
		<path class="st0" d="M288,75.9c1.3,0,1.9,1.5,1.9,4.6v495.7c0,3.1-0.6,4.6-1.9,4.6h-23.1c-1.3,0-1.9-1.5-1.9-4.6V80.4
			c0-3.1,0.6-4.6,1.9-4.6L288,75.9L288,75.9z"/>
		<path class="st0" d="M182.8,211.6c1.3,0,1.9,0.7,1.9,2.1v229.2c0,1.4-0.6,2.1-1.9,2.1h-23.1c-1.3,0-1.9-0.7-1.9-2.1V213.7
			c0-1.4,0.6-2.1,1.9-2.1L182.8,211.6L182.8,211.6z"/>
		<path class="st0" d="M130.2,231.3c1.3,0,1.9,0.6,1.9,1.8v190.4c0,1.2-0.6,1.8-1.9,1.8h-23.1c-1.3,0-1.9-0.6-1.9-1.8V233.1
			c0-1.2,0.6-1.8,1.9-1.8H130.2z"/>
		<path class="st0" d="M77.6,258.6c1.3,0,1.9,0.4,1.9,1.3v137c0,0.8-0.6,1.3-1.9,1.3H54.5c-1.3,0-1.9-0.4-1.9-1.3v-137
			c0-0.8,0.6-1.3,1.9-1.3H77.6z"/>
		<path class="st0" d="M235.4,115.7c1.3,0,1.9,1.3,1.9,3.9v417.6c0,2.6-0.6,3.9-1.9,3.9h-23.1c-1.3,0-1.9-1.3-1.9-3.9V119.5
			c0-2.6,0.6-3.9,1.9-3.9L235.4,115.7L235.4,115.7z"/>
		<path class="st0" d="M445.7,103.1c1.3,0,1.9,1.4,1.9,4.1v442.3c0,2.7-0.6,4.1-1.9,4.1h-23.1c-1.3,0-1.9-1.4-1.9-4.1V107.2
			c0-2.7,0.6-4.1,1.9-4.1H445.7z"/>
		<path class="st0" d="M498.3,170.8c1.3,0,1.9,1,1.9,2.9V483c0,1.9-0.6,2.9-1.9,2.9h-23.1c-1.3,0-1.9-1-1.9-2.9V173.6
			c0-1.9,0.6-2.9,1.9-2.9L498.3,170.8L498.3,170.8z"/>
		<path class="st0" d="M550.9,223c1.3,0,1.9,0.6,1.9,1.9v206.7c0,1.3-0.6,1.9-1.9,1.9h-23.1c-1.3,0-1.9-0.6-1.9-1.9V224.9
			c0-1.3,0.6-1.9,1.9-1.9H550.9z"/>
		<path class="st0" d="M603.5,314.9c1.3,0,1.9,0.1,1.9,0.2v26.4c0,0.2-0.6,0.2-1.9,0.2h-23.1c-1.3,0-1.9-0.1-1.9-0.2v-26.4
			c0-0.2,0.6-0.2,1.9-0.2H603.5z"/>
		<path class="st0" d="M25,314.9c1.3,0,1.9,0.1,1.9,0.2v26.4c0,0.2-0.6,0.2-1.9,0.2H1.9c-1.3,0-1.9-0.1-1.9-0.2v-26.4
			c0-0.2,0.6-0.2,1.9-0.2H25z"/>
	</g>
</g>
</svg>
